{"title":"Across the Line The Exodus of Charlie Wright 2010 DvDRip x264 Fe","uid":6049633,"size":1320716449,"categoryP":"video","categoryS":"movies","magnet":"?xt=urn:btih:623d65df8b7e77780dd0bc082a8cd99d715865b7&amp;dn=Across+the+Line+The+Exodus+of+Charlie+Wright+2010+DvDRip+x264+Fe&amp;tr=udp%3A%2F%2Ftracker.openbittorrent.com%3A80&amp;tr=udp%3A%2F%2Fopen.demonii.com%3A1337&amp;tr=udp%3A%2F%2Ftracker.coppersurfer.tk%3A6969&amp;tr=udp%3A%2F%2Fexodus.desync.com%3A6969","seeders":0,"leechers":1,"uploader":"hiest","files":-1,"time":1292633822,"description":"Genre:Crime | Drama\nLanguage:English\nIMDb:http://www.imdb.com/title/tt1663193/\nSource:DVD\n\n\nFormat : Matroska\nFile size : 1.23 GiB\nDuration : 1h 34mn\nOverall bit rate : 1 863 Kbps\n\n\nVideo\nFormat settings, CABAC : Yes\nFormat settings, ReFrames : 4 frames\nCodec ID : V_MPEG4/ISO/AVC\nDuration : 1h 34mn\nBit rate : 1 500 Kbps\nWidth : 720 pixels\nHeight : 384 pixels\nDisplay aspect ratio : 1.875\nFrame rate mode : Variable\nFrame rate : 23.976 fps\nColor space : YUV\nChroma subsampling : 4:2:0\nBit depth : 8 bits\nScan type : Progressive\nBits/(Pixel*Frame) : 0.226\nStream size : 973 MiB (77%)\nWriting library : x264 core 106 r1732 b20059a\n\nAudio\nID : 2\nFormat : AC-3\nFormat/Info : Audio Coding 3\nMode extension : CM (complete main)\nCodec ID : A_AC3\nDuration : 1h 34mn\nBit rate mode : Constant\nBit rate : 384 Kbps\nChannel(s) : 6 channels\nChannel positions : Front: L C R, Side: L R, LFE\nSampling rate : 48.0 KHz\nBit depth : 16 bits\nVideo delay : -1mn 5s\nStream size : 259 MiB (21%)\nLanguage : English\n\n\nPlot:\nThe story centers on Charlie, a Los Angeles billionaire financial whiz who goes into self-imposed exile in Tijuana after his empire is revealed to have been a Ponzi scheme\n\n\n\n\n\n\n================================== &lt;a href=&quot;\nhttp://thepiratebay.se/user/hiest&quot; rel=&quot;nofollow&quot; target=&quot;_NEW&quot;&gt;\nhttp://thepiratebay.se/user/hiest&lt;/a&gt;\n==================================\n\n\n\n\n\n\nScreen Shots:\n &lt;a href=&quot;\nhttp://www.rapidhdd.com/images/176484vlcsnap-2010-12-18-13h48m30s28.png&quot; rel=&quot;nofollow&quot; target=&quot;_NEW&quot;&gt;\nhttp://www.rapidhdd.com/images/176484vlcsnap-2010-12-18-13h48m30s28.png&lt;/a&gt;\n &lt;a href=&quot;\nhttp://www.rapidhdd.com/images/689271vlcsnap-2010-12-18-13h48m59s66.png&quot; rel=&quot;nofollow&quot; target=&quot;_NEW&quot;&gt;\nhttp://www.rapidhdd.com/images/689271vlcsnap-2010-12-18-13h48m59s66.png&lt;/a&gt;\n &lt;a href=&quot;\nhttp://www.rapidhdd.com/images/912541vlcsnap-2010-12-18-13h49m18s1.png&quot; rel=&quot;nofollow&quot; target=&quot;_NEW&quot;&gt;\nhttp://www.rapidhdd.com/images/912541vlcsnap-2010-12-18-13h49m18s1.png&lt;/a&gt;\n &lt;a href=&quot;\nhttp://www.rapidhdd.com/images/274418vlcsnap-2010-12-18-13h49m38s201.png&quot; rel=&quot;nofollow&quot; target=&quot;_NEW&quot;&gt;\nhttp://www.rapidhdd.com/images/274418vlcsnap-2010-12-18-13h49m38s201.png&lt;/a&gt;\n &lt;a href=&quot;\nhttp://www.rapidhdd.com/images/99910vlcsnap-2010-12-18-13h49m55s122.png&quot; rel=&quot;nofollow&quot; target=&quot;_NEW&quot;&gt;\nhttp://www.rapidhdd.com/images/99910vlcsnap-2010-12-18-13h49m55s122.png&lt;/a&gt;","torrent":{"xt":"urn:btih:623d65df8b7e77780dd0bc082a8cd99d715865b7","amp;dn":"Across+the+Line+The+Exodus+of+Charlie+Wright+2010+DvDRip+x264+Fe","amp;tr":["udp%3A%2F%2Ftracker.openbittorrent.com%3A80","udp%3A%2F%2Fopen.demonii.com%3A1337","udp%3A%2F%2Ftracker.coppersurfer.tk%3A6969","udp%3A%2F%2Fexodus.desync.com%3A6969"],"infoHash":"623d65df8b7e77780dd0bc082a8cd99d715865b7","infoHashBuffer":{"type":"Buffer","data":[98,61,101,223,139,126,119,120,13,208,188,8,42,140,217,157,113,88,101,183]},"announce":[],"urlList":[]}}